{
  "accessors": [
    {
      "bufferView": 2,
      "componentType": 5126,
      "count": 621,
      "max": [
        24.01864242553711,
        7.1156463623046875,
        19.728849411010742
      ],
      "min": [
        -24.018632888793945,
        1.8855035305023193,
        6.518089771270752
      ],
      "type": "VEC3"
    },
    {
      "bufferView": 2,
      "byteOffset": 7452,
      "componentType": 5126,
      "count": 621,
      "max": [
        0.9856024384498596,
        0.9988214373588562,
        0.9919524788856506
      ],
      "min": [
        -0.9856025576591492,
        -0.9962656497955322,
        -0.923469603061676
      ],
      "type": "VEC3"
    },
    {
      "bufferView": 2,
      "byteOffset": 14904,
      "componentType": 5126,
      "count": 621,
      "max": [
        0.49803921580314636,
        0.49803921580314636,
        0.49803921580314636
      ],
      "min": [
        0.239215686917305,
        0.239215686917305,
        0.239215686917305
      ],
      "type": "VEC3"
    },
    {
      "bufferView": 1,
      "componentType": 5126,
      "count": 621,
      "max": [
        0.9931641221046448,
        0.9926146864891052
      ],
      "min": [
        0.014564510434865952,
        0.008789061568677425
      ],
      "type": "VEC2"
    },
    {
      "bufferView": 0,
      "componentType": 5125,
      "count": 2358,
      "type": "SCALAR"
    },
    {
      "bufferView": 2,
      "byteOffset": 22356,
      "componentType": 5126,
      "count": 463,
      "max": [
        5.56064510345459,
        6.564869403839111,
        12.204082489013672
      ],
      "min": [
        -5.56064510345459,
        0.6888148188591003,
        0.3760056495666504
      ],
      "type": "VEC3"
    },
    {
      "bufferView": 2,
      "byteOffset": 27912,
      "componentType": 5126,
      "count": 463,
      "max": [
        0.9917928576469421,
        0.996540904045105,
        0.9953151941299438
      ],
      "min": [
        -0.9917929172515869,
        -0.996540904045105,
        -0.9100479483604431
      ],
      "type": "VEC3"
    },
    {
      "bufferView": 2,
      "byteOffset": 33468,
      "componentType": 5126,
      "count": 463,
      "max": [
        0.49803921580314636,
        0.49803921580314636,
        0.49803921580314636
      ],
      "min": [
        0.49803921580314636,
        0.49803921580314636,
        0.49803921580314636
      ],
      "type": "VEC3"
    },
    {
      "bufferView": 1,
      "byteOffset": 4968,
      "componentType": 5126,
      "count": 463,
      "max": [
        0.5986328125,
        0.9914780259132385
      ],
      "min": [
        0.006832122802734375,
        0.4677734076976776
      ],
      "type": "VEC2"
    },
    {
      "bufferView": 0,
      "byteOffset": 9432,
      "componentType": 5125,
      "count": 2304,
      "type": "SCALAR"
    },
    {
      "bufferView": 2,
      "byteOffset": 39024,
      "componentType": 5126,
      "count": 13,
      "max": [
        -5.801115664227918e-12,
        -3.2555348873138428,
        7.144445896148682
      ],
      "min": [
        -3.0259640216827393,
        -4.63838005065918,
        4.4645161628723145
      ],
      "type": "VEC3"
    },
    {
      "bufferView": 2,
      "byteOffset": 39180,
      "componentType": 5126,
      "count": 13,
      "max": [
        3.052869578823447e-05,
        -0.6613407731056213,
        0.136515811085701
      ],
      "min": [
        -0.7409557104110718,
        -0.9998770952224731,
        -0.23220859467983246
      ],
      "type": "VEC3"
    },
    {
      "bufferView": 2,
      "byteOffset": 39336,
      "componentType": 5126,
      "count": 13,
      "max": [
        0.49803921580314636,
        0.49803921580314636,
        0.49803921580314636
      ],
      "min": [
        0.49803921580314636,
        0.49803921580314636,
        0.49803921580314636
      ],
      "type": "VEC3"
    },
    {
      "bufferView": 1,
      "byteOffset": 8672,
      "componentType": 5126,
      "count": 13,
      "max": [
        0.70068359375,
        0.72900390625
      ],
      "min": [
        0.37744140625,
        0.1333007961511612
      ],
      "type": "VEC2"
    },
    {
      "bufferView": 0,
      "byteOffset": 18648,
      "componentType": 5125,
      "count": 39,
      "type": "SCALAR"
    },
    {
      "bufferView": 2,
      "byteOffset": 39492,
      "componentType": 5126,
      "count": 13,
      "max": [
        3.0259640216827393,
        -3.2555348873138428,
        7.144445896148682
      ],
      "min": [
        -5.839641270544149e-12,
        -4.63838005065918,
        4.4645161628723145
      ],
      "type": "VEC3"
    },
    {
      "bufferView": 2,
      "byteOffset": 39648,
      "componentType": 5126,
      "count": 13,
      "max": [
        0.7409557104110718,
        -0.6613407731056213,
        0.136515811085701
      ],
      "min": [
        3.0527902708854526e-05,
        -0.9998770952224731,
        -0.23220859467983246
      ],
      "type": "VEC3"
    },
    {
      "bufferView": 2,
      "byteOffset": 39804,
      "componentType": 5126,
      "count": 13,
      "max": [
        0.49803921580314636,
        0.49803921580314636,
        0.49803921580314636
      ],
      "min": [
        0.49803921580314636,
        0.49803921580314636,
        0.49803921580314636
      ],
      "type": "VEC3"
    },
    {
      "bufferView": 1,
      "byteOffset": 8776,
      "componentType": 5126,
      "count": 13,
      "max": [
        0.7016602158546448,
        0.7316895127296448
      ],
      "min": [
        0.3745116889476776,
        0.1323242038488388
      ],
      "type": "VEC2"
    },
    {
      "bufferView": 0,
      "byteOffset": 18804,
      "componentType": 5125,
      "count": 39,
      "type": "SCALAR"
    },
    {
      "bufferView": 2,
      "byteOffset": 39960,
      "componentType": 5126,
      "count": 2022,
      "max": [
        7.56260347366333,
        3.162903070449829,
        10.14822006225586
      ],
      "min": [
        -7.562604904174805,
        -5.18696403503418,
        3.2392438953365854e-08
      ],
      "type": "VEC3"
    },
    {
      "bufferView": 2,
      "byteOffset": 64224,
      "componentType": 5126,
      "count": 2022,
      "max": [
        0.9997099041938782,
        0.9993681311607361,
        0.9988582730293274
      ],
      "min": [
        -0.999709963798523,
        -1.0,
        -1.0
      ],
      "type": "VEC3"
    },
    {
      "bufferView": 2,
      "byteOffset": 88488,
      "componentType": 5126,
      "count": 2022,
      "max": [
        0.49803921580314636,
        0.49803921580314636,
        0.49803921580314636
      ],
      "min": [
        0.4313725531101227,
        0.4313725531101227,
        0.4313725531101227
      ],
      "type": "VEC3"
    },
    {
      "bufferView": 1,
      "byteOffset": 8880,
      "componentType": 5126,
      "count": 2022,
      "max": [
        0.99169921875,
        0.9976025223731995
      ],
      "min": [
        -0.9951171875,
        0.011230469681322575
      ],
      "type": "VEC2"
    },
    {
      "bufferView": 0,
      "byteOffset": 18960,
      "componentType": 5125,
      "count": 7332,
      "type": "SCALAR"
    },
    {
      "bufferView": 2,
      "byteOffset": 112752,
      "componentType": 5126,
      "count": 966,
      "max": [
        10.844429016113281,
        2.427064895629883,
        7.1724677085876465
      ],
      "min": [
        -10.844426155090332,
        -4.60685396194458,
        0.1305924355983734
      ],
      "type": "VEC3"
    },
    {
      "bufferView": 2,
      "byteOffset": 124344,
      "componentType": 5126,
      "count": 966,
      "max": [
        0.9989613890647888,
        0.9998601078987122,
        0.9995121359825134
      ],
      "min": [
        -0.9989613890647888,
        -0.9998598694801331,
        -0.9993728995323181
      ],
      "type": "VEC3"
    },
    {
      "bufferView": 2,
      "byteOffset": 135936,
      "componentType": 5126,
      "count": 966,
      "max": [
        0.49803921580314636,
        0.49803921580314636,
        0.49803921580314636
      ],
      "min": [
        0.019607843831181526,
        0.019607843831181526,
        0.019607843831181526
      ],
      "type": "VEC3"
    },
    {
      "bufferView": 1,
      "byteOffset": 25056,
      "componentType": 5126,
      "count": 966,
      "max": [
        0.94287109375,
        0.4526366889476776
      ],
      "min": [
        -1.2568360567092896,
        0.010742190293967724
      ],
      "type": "VEC2"
    },
    {
      "bufferView": 0,
      "byteOffset": 48288,
      "componentType": 5125,
      "count": 3660,
      "type": "SCALAR"
    },
    {
      "bufferView": 2,
      "byteOffset": 147528,
      "componentType": 5126,
      "count": 1184,
      "max": [
        11.143190383911133,
        2.058495044708252,
        7.4288010597229
      ],
      "min": [
        -11.143187522888184,
        -2.0476369857788086,
        5.175187110900879
      ],
      "type": "VEC3"
    },
    {
      "bufferView": 2,
      "byteOffset": 161736,
      "componentType": 5126,
      "count": 1184,
      "max": [
        0.9990707039833069,
        0.9999998807907104,
        0.9997179508209229
      ],
      "min": [
        -0.999070942401886,
        -0.9999998807907104,
        -0.9999788999557495
      ],
      "type": "VEC3"
    },
    {
      "bufferView": 2,
      "byteOffset": 175944,
      "componentType": 5126,
      "count": 1184,
      "max": [
        0.49803921580314636,
        0.49803921580314636,
        0.49803921580314636
      ],
      "min": [
        0.1882352977991104,
        0.1882352977991104,
        0.1882352977991104
      ],
      "type": "VEC3"
    },
    {
      "bufferView": 1,
      "byteOffset": 32784,
      "componentType": 5126,
      "count": 1184,
      "max": [
        0.8549805283546448,
        0.7547606825828552
      ],
      "min": [
        0.2050780951976776,
        0.07861328125
      ],
      "type": "VEC2"
    },
    {
      "bufferView": 0,
      "byteOffset": 62928,
      "componentType": 5125,
      "count": 5424,
      "type": "SCALAR"
    },
    {
      "bufferView": 2,
      "byteOffset": 190152,
      "componentType": 5126,
      "count": 503,
      "max": [
        6.118001937866211,
        4.594675064086914,
        10.213510513305664
      ],
      "min": [
        -6.118001461029053,
        -4.514573097229004,
        1.0249472856521606
      ],
      "type": "VEC3"
    },
    {
      "bufferView": 2,
      "byteOffset": 196188,
      "componentType": 5126,
      "count": 503,
      "max": [
        1.0,
        0.9999237060546875,
        0.9999952912330627
      ],
      "min": [
        -1.0,
        -0.9999237060546875,
        -0.9999066591262817
      ],
      "type": "VEC3"
    },
    {
      "bufferView": 2,
      "byteOffset": 202224,
      "componentType": 5126,
      "count": 503,
      "max": [
        0.49803921580314636,
        0.49803921580314636,
        0.49803921580314636
      ],
      "min": [
        0.49803921580314636,
        0.49803921580314636,
        0.49803921580314636
      ],
      "type": "VEC3"
    },
    {
      "bufferView": 1,
      "byteOffset": 42256,
      "componentType": 5126,
      "count": 503,
      "max": [
        0.9965819716453552,
        0.9967594146728516
      ],
      "min": [
        0.7387694716453552,
        0.2583008110523224
      ],
      "type": "VEC2"
    },
    {
      "bufferView": 0,
      "byteOffset": 84624,
      "componentType": 5125,
      "count": 2592,
      "type": "SCALAR"
    },
    {
      "bufferView": 2,
      "byteOffset": 208260,
      "componentType": 5126,
      "count": 615,
      "max": [
        3.456923246383667,
        3.3741540908813477,
        10.216509819030762
      ],
      "min": [
        -3.456923007965088,
        -3.3739230632781982,
        -1.0165159702301025
      ],
      "type": "VEC3"
    },
    {
      "bufferView": 2,
      "byteOffset": 215640,
      "componentType": 5126,
      "count": 615,
      "max": [
        0.9999778866767883,
        0.9922252297401428,
        0.9947524070739746
      ],
      "min": [
        -0.9999786019325256,
        -1.0,
        -0.9947887063026428
      ],
      "type": "VEC3"
    },
    {
      "bufferView": 2,
      "byteOffset": 223020,
      "componentType": 5126,
      "count": 615,
      "max": [
        0.49803921580314636,
        0.49803921580314636,
        0.49803921580314636
      ],
      "min": [
        0.239215686917305,
        0.239215686917305,
        0.239215686917305
      ],
      "type": "VEC3"
    },
    {
      "bufferView": 1,
      "byteOffset": 46280,
      "componentType": 5126,
      "count": 615,
      "max": [
        1.0,
        0.999969482421875
      ],
      "min": [
        3.051759995287284e-05,
        0.0
      ],
      "type": "VEC2"
    },
    {
      "bufferView": 0,
      "byteOffset": 94992,
      "componentType": 5125,
      "count": 2910,
      "type": "SCALAR"
    },
    {
      "bufferView": 2,
      "byteOffset": 230400,
      "componentType": 5126,
      "count": 949,
      "max": [
        -6.5772600173950195,
        2.21413516998291,
        5.567745208740234
      ],
      "min": [
        -10.98273754119873,
        -14.371806144714355,
        4.653820037841797
      ],
      "type": "VEC3"
    },
    {
      "bufferView": 2,
      "byteOffset": 241788,
      "componentType": 5126,
      "count": 949,
      "max": [
        0.9999996423721313,
        0.9999997019767761,
        1.0000001192092896
      ],
      "min": [
        -0.9999996423721313,
        -0.9999997019767761,
        -1.0000001192092896
      ],
      "type": "VEC3"
    },
    {
      "bufferView": 2,
      "byteOffset": 253176,
      "componentType": 5126,
      "count": 949,
      "max": [
        0.49803921580314636,
        0.49803921580314636,
        0.49803921580314636
      ],
      "min": [
        0.49803921580314636,
        0.49803921580314636,
        0.49803921580314636
      ],
      "type": "VEC3"
    },
    {
      "bufferView": 1,
      "byteOffset": 51200,
      "componentType": 5126,
      "count": 949,
      "max": [
        0.98193359375,
        0.48681640625
      ],
      "min": [
        0.0028400421142578125,
        0.0024414060171693563
      ],
      "type": "VEC2"
    },
    {
      "bufferView": 0,
      "byteOffset": 106632,
      "componentType": 5125,
      "count": 2514,
      "type": "SCALAR"
    },
    {
      "bufferView": 2,
      "byteOffset": 264564,
      "componentType": 5126,
      "count": 949,
      "max": [
        -6.5772600173950195,
        2.21413516998291,
        5.567745208740234
      ],
      "min": [
        -10.98273754119873,
        -14.371806144714355,
        4.653820037841797
      ],
      "type": "VEC3"
    },
    {
      "bufferView": 2,
      "byteOffset": 275952,
      "componentType": 5126,
      "count": 949,
      "max": [
        0.9999996423721313,
        0.9999997019767761,
        1.0000001192092896
      ],
      "min": [
        -0.9999996423721313,
        -0.9999997019767761,
        -1.0000001192092896
      ],
      "type": "VEC3"
    },
    {
      "bufferView": 2,
      "byteOffset": 287340,
      "componentType": 5126,
      "count": 949,
      "max": [
        0.49803921580314636,
        0.49803921580314636,
        0.49803921580314636
      ],
      "min": [
        0.49803921580314636,
        0.49803921580314636,
        0.49803921580314636
      ],
      "type": "VEC3"
    },
    {
      "bufferView": 1,
      "byteOffset": 58792,
      "componentType": 5126,
      "count": 949,
      "max": [
        0.98193359375,
        0.48681640625
      ],
      "min": [
        0.0028400421142578125,
        0.0024414060171693563
      ],
      "type": "VEC2"
    },
    {
      "bufferView": 0,
      "byteOffset": 116688,
      "componentType": 5125,
      "count": 2514,
      "type": "SCALAR"
    },
    {
      "bufferView": 2,
      "byteOffset": 298728,
      "componentType": 5126,
      "count": 615,
      "max": [
        3.456923246383667,
        3.3741540908813477,
        10.216509819030762
      ],
      "min": [
        -3.456923007965088,
        -3.3739230632781982,
        -1.0165159702301025
      ],
      "type": "VEC3"
    },
    {
      "bufferView": 2,
      "byteOffset": 306108,
      "componentType": 5126,
      "count": 615,
      "max": [
        0.9999778866767883,
        0.9922252297401428,
        0.9947524070739746
      ],
      "min": [
        -0.9999786019325256,
        -1.0,
        -0.9947887063026428
      ],
      "type": "VEC3"
    },
    {
      "bufferView": 2,
      "byteOffset": 313488,
      "componentType": 5126,
      "count": 615,
      "max": [
        0.49803921580314636,
        0.49803921580314636,
        0.49803921580314636
      ],
      "min": [
        0.239215686917305,
        0.239215686917305,
        0.239215686917305
      ],
      "type": "VEC3"
    },
    {
      "bufferView": 1,
      "byteOffset": 66384,
      "componentType": 5126,
      "count": 615,
      "max": [
        1.0,
        0.999969482421875
      ],
      "min": [
        3.051759995287284e-05,
        0.0
      ],
      "type": "VEC2"
    },
    {
      "bufferView": 0,
      "byteOffset": 126744,
      "componentType": 5125,
      "count": 2910,
      "type": "SCALAR"
    },
    {
      "bufferView": 2,
      "byteOffset": 320868,
      "componentType": 5126,
      "count": 503,
      "max": [
        6.118001937866211,
        4.594675064086914,
        10.213510513305664
      ],
      "min": [
        -6.118001461029053,
        -4.514573097229004,
        1.0249472856521606
      ],
      "type": "VEC3"
    },
    {
      "bufferView": 2,
      "byteOffset": 326904,
      "componentType": 5126,
      "count": 503,
      "max": [
        1.0,
        0.9999237060546875,
        0.9999952912330627
      ],
      "min": [
        -1.0,
        -0.9999237060546875,
        -0.9999066591262817
      ],
      "type": "VEC3"
    },
    {
      "bufferView": 2,
      "byteOffset": 332940,
      "componentType": 5126,
      "count": 503,
      "max": [
        0.49803921580314636,
        0.49803921580314636,
        0.49803921580314636
      ],
      "min": [
        0.49803921580314636,
        0.49803921580314636,
        0.49803921580314636
      ],
      "type": "VEC3"
    },
    {
      "bufferView": 1,
      "byteOffset": 71304,
      "componentType": 5126,
      "count": 503,
      "max": [
        0.9965819716453552,
        0.9967594146728516
      ],
      "min": [
        0.7387694716453552,
        0.2583008110523224
      ],
      "type": "VEC2"
    },
    {
      "bufferView": 0,
      "byteOffset": 138384,
      "componentType": 5125,
      "count": 2592,
      "type": "SCALAR"
    },
    {
      "bufferView": 2,
      "byteOffset": 338976,
      "componentType": 5126,
      "count": 1184,
      "max": [
        11.143190383911133,
        2.058495044708252,
        7.4288010597229
      ],
      "min": [
        -11.143187522888184,
        -2.0476369857788086,
        5.175187110900879
      ],
      "type": "VEC3"
    },
    {
      "bufferView": 2,
      "byteOffset": 353184,
      "componentType": 5126,
      "count": 1184,
      "max": [
        0.9990707039833069,
        0.9999998807907104,
        0.9997179508209229
      ],
      "min": [
        -0.999070942401886,
        -0.9999998807907104,
        -0.9999788999557495
      ],
      "type": "VEC3"
    },
    {
      "bufferView": 2,
      "byteOffset": 367392,
      "componentType": 5126,
      "count": 1184,
      "max": [
        0.49803921580314636,
        0.49803921580314636,
        0.49803921580314636
      ],
      "min": [
        0.1882352977991104,
        0.1882352977991104,
        0.1882352977991104
      ],
      "type": "VEC3"
    },
    {
      "bufferView": 1,
      "byteOffset": 75328,
      "componentType": 5126,
      "count": 1184,
      "max": [
        0.8549805283546448,
        0.7547606825828552
      ],
      "min": [
        0.2050780951976776,
        0.07861328125
      ],
      "type": "VEC2"
    },
    {
      "bufferView": 0,
      "byteOffset": 148752,
      "componentType": 5125,
      "count": 5424,
      "type": "SCALAR"
    },
    {
      "bufferView": 2,
      "byteOffset": 381600,
      "componentType": 5126,
      "count": 966,
      "max": [
        10.844429016113281,
        2.427064895629883,
        7.1724677085876465
      ],
      "min": [
        -10.844426155090332,
        -4.60685396194458,
        0.1305924355983734
      ],
      "type": "VEC3"
    },
    {
      "bufferView": 2,
      "byteOffset": 393192,
      "componentType": 5126,
      "count": 966,
      "max": [
        0.9989613890647888,
        0.9998601078987122,
        0.9995121359825134
      ],
      "min": [
        -0.9989613890647888,
        -0.9998598694801331,
        -0.9993728995323181
      ],
      "type": "VEC3"
    },
    {
      "bufferView": 2,
      "byteOffset": 404784,
      "componentType": 5126,
      "count": 966,
      "max": [
        0.49803921580314636,
        0.49803921580314636,
        0.49803921580314636
      ],
      "min": [
        0.019607843831181526,
        0.019607843831181526,
        0.019607843831181526
      ],
      "type": "VEC3"
    },
    {
      "bufferView": 1,
      "byteOffset": 84800,
      "componentType": 5126,
      "count": 966,
      "max": [
        0.94287109375,
        0.4526366889476776
      ],
      "min": [
        -1.2568360567092896,
        0.010742190293967724
      ],
      "type": "VEC2"
    },
    {
      "bufferView": 0,
      "byteOffset": 170448,
      "componentType": 5125,
      "count": 3660,
      "type": "SCALAR"
    },
    {
      "bufferView": 2,
      "byteOffset": 416376,
      "componentType": 5126,
      "count": 2022,
      "max": [
        7.56260347366333,
        3.162903070449829,
        10.14822006225586
      ],
      "min": [
        -7.562604904174805,
        -5.18696403503418,
        3.2392438953365854e-08
      ],
      "type": "VEC3"
    },
    {
      "bufferView": 2,
      "byteOffset": 440640,
      "componentType": 5126,
      "count": 2022,
      "max": [
        0.9997099041938782,
        0.9993681311607361,
        0.9988582730293274
      ],
      "min": [
        -0.999709963798523,
        -1.0,
        -1.0
      ],
      "type": "VEC3"
    },
    {
      "bufferView": 2,
      "byteOffset": 464904,
      "componentType": 5126,
      "count": 2022,
      "max": [
        0.49803921580314636,
        0.49803921580314636,
        0.49803921580314636
      ],
      "min": [
        0.4313725531101227,
        0.4313725531101227,
        0.4313725531101227
      ],
      "type": "VEC3"
    },
    {
      "bufferView": 1,
      "byteOffset": 92528,
      "componentType": 5126,
      "count": 2022,
      "max": [
        0.99169921875,
        0.9976025223731995
      ],
      "min": [
        -0.9951171875,
        0.011230469681322575
      ],
      "type": "VEC2"
    },
    {
      "bufferView": 0,
      "byteOffset": 185088,
      "componentType": 5125,
      "count": 7332,
      "type": "SCALAR"
    },
    {
      "bufferView": 2,
      "byteOffset": 489168,
      "componentType": 5126,
      "count": 13,
      "max": [
        3.0259640216827393,
        -3.2555348873138428,
        7.144445896148682
      ],
      "min": [
        -5.839641270544149e-12,
        -4.63838005065918,
        4.4645161628723145
      ],
      "type": "VEC3"
    },
    {
      "bufferView": 2,
      "byteOffset": 489324,
      "componentType": 5126,
      "count": 13,
      "max": [
        0.7409557104110718,
        -0.6613407731056213,
        0.136515811085701
      ],
      "min": [
        3.0527902708854526e-05,
        -0.9998770952224731,
        -0.23220859467983246
      ],
      "type": "VEC3"
    },
    {
      "bufferView": 2,
      "byteOffset": 489480,
      "componentType": 5126,
      "count": 13,
      "max": [
        0.49803921580314636,
        0.49803921580314636,
        0.49803921580314636
      ],
      "min": [
        0.49803921580314636,
        0.49803921580314636,
        0.49803921580314636
      ],
      "type": "VEC3"
    },
    {
      "bufferView": 1,
      "byteOffset": 108704,
      "componentType": 5126,
      "count": 13,
      "max": [
        0.7016602158546448,
        0.7316895127296448
      ],
      "min": [
        0.3745116889476776,
        0.1323242038488388
      ],
      "type": "VEC2"
    },
    {
      "bufferView": 0,
      "byteOffset": 214416,
      "componentType": 5125,
      "count": 39,
      "type": "SCALAR"
    },
    {
      "bufferView": 2,
      "byteOffset": 489636,
      "componentType": 5126,
      "count": 13,
      "max": [
        -5.801115664227918e-12,
        -3.2555348873138428,
        7.144445896148682
      ],
      "min": [
        -3.0259640216827393,
        -4.63838005065918,
        4.4645161628723145
      ],
      "type": "VEC3"
    },
    {
      "bufferView": 2,
      "byteOffset": 489792,
      "componentType": 5126,
      "count": 13,
      "max": [
        3.052869578823447e-05,
        -0.6613407731056213,
        0.136515811085701
      ],
      "min": [
        -0.7409557104110718,
        -0.9998770952224731,
        -0.23220859467983246
      ],
      "type": "VEC3"
    },
    {
      "bufferView": 2,
      "byteOffset": 489948,
      "componentType": 5126,
      "count": 13,
      "max": [
        0.49803921580314636,
        0.49803921580314636,
        0.49803921580314636
      ],
      "min": [
        0.49803921580314636,
        0.49803921580314636,
        0.49803921580314636
      ],
      "type": "VEC3"
    },
    {
      "bufferView": 1,
      "byteOffset": 108808,
      "componentType": 5126,
      "count": 13,
      "max": [
        0.70068359375,
        0.72900390625
      ],
      "min": [
        0.37744140625,
        0.1333007961511612
      ],
      "type": "VEC2"
    },
    {
      "bufferView": 0,
      "byteOffset": 214572,
      "componentType": 5125,
      "count": 39,
      "type": "SCALAR"
    },
    {
      "bufferView": 2,
      "byteOffset": 490104,
      "componentType": 5126,
      "count": 463,
      "max": [
        5.56064510345459,
        6.564869403839111,
        12.204082489013672
      ],
      "min": [
        -5.56064510345459,
        0.6888148188591003,
        0.3760056495666504
      ],
      "type": "VEC3"
    },
    {
      "bufferView": 2,
      "byteOffset": 495660,
      "componentType": 5126,
      "count": 463,
      "max": [
        0.9917928576469421,
        0.996540904045105,
        0.9953151941299438
      ],
      "min": [
        -0.9917929172515869,
        -0.996540904045105,
        -0.9100479483604431
      ],
      "type": "VEC3"
    },
    {
      "bufferView": 2,
      "byteOffset": 501216,
      "componentType": 5126,
      "count": 463,
      "max": [
        0.49803921580314636,
        0.49803921580314636,
        0.49803921580314636
      ],
      "min": [
        0.49803921580314636,
        0.49803921580314636,
        0.49803921580314636
      ],
      "type": "VEC3"
    },
    {
      "bufferView": 1,
      "byteOffset": 108912,
      "componentType": 5126,
      "count": 463,
      "max": [
        0.5986328125,
        0.9914780259132385
      ],
      "min": [
        0.006832122802734375,
        0.4677734076976776
      ],
      "type": "VEC2"
    },
    {
      "bufferView": 0,
      "byteOffset": 214728,
      "componentType": 5125,
      "count": 2304,
      "type": "SCALAR"
    },
    {
      "bufferView": 2,
      "byteOffset": 506772,
      "componentType": 5126,
      "count": 621,
      "max": [
        24.01864242553711,
        7.1156463623046875,
        19.728849411010742
      ],
      "min": [
        -24.018632888793945,
        1.8855035305023193,
        6.518089771270752
      ],
      "type": "VEC3"
    },
    {
      "bufferView": 2,
      "byteOffset": 514224,
      "componentType": 5126,
      "count": 621,
      "max": [
        0.9856024384498596,
        0.9988214373588562,
        0.9919524788856506
      ],
      "min": [
        -0.9856025576591492,
        -0.9962656497955322,
        -0.923469603061676
      ],
      "type": "VEC3"
    },
    {
      "bufferView": 2,
      "byteOffset": 521676,
      "componentType": 5126,
      "count": 621,
      "max": [
        0.49803921580314636,
        0.49803921580314636,
        0.49803921580314636
      ],
      "min": [
        0.239215686917305,
        0.239215686917305,
        0.239215686917305
      ],
      "type": "VEC3"
    },
    {
      "bufferView": 1,
      "byteOffset": 112616,
      "componentType": 5126,
      "count": 621,
      "max": [
        0.9931641221046448,
        0.9926146864891052
      ],
      "min": [
        0.014564510434865952,
        0.008789061568677425
      ],
      "type": "VEC2"
    },
    {
      "bufferView": 0,
      "byteOffset": 223944,
      "componentType": 5125,
      "count": 2358,
      "type": "SCALAR"
    }
  ],
  "asset": {
    "extras": {
      "author": "H,yoshi (https://sketchfab.com/HY2245)",
      "license": "CC-BY-4.0 (http://creativecommons.org/licenses/by/4.0/)",
      "source": "https://sketchfab.com/3d-models/meta-knight-8702826587e84be19c8455efb1eb4dbb",
      "title": "Meta Knight"
    },
    "generator": "Sketchfab-16.64.0",
    "version": "2.0"
  },
  "bufferViews": [
    {
      "buffer": 0,
      "byteLength": 233376,
      "name": "floatBufferViews",
      "target": 34963
    },
    {
      "buffer": 0,
      "byteLength": 117584,
      "byteOffset": 233376,
      "byteStride": 8,
      "name": "floatBufferViews",
      "target": 34962
    },
    {
      "buffer": 0,
      "byteLength": 529128,
      "byteOffset": 350960,
      "byteStride": 12,
      "name": "floatBufferViews",
      "target": 34962
    }
  ],
  "buffers": [
    {
      "byteLength": 880088,
      "uri": "scene.bin"
    }
  ],
  "extensionsUsed": [
    "KHR_materials_specular"
  ],
  "images": [
    {
      "uri": "textures/material_baseColor.png"
    },
    {
      "uri": "textures/material_1_baseColor.png"
    },
    {
      "uri": "textures/material_1_metallicRoughness.png"
    },
    {
      "uri": "textures/EnvironmentAmbientLight_baseColor.png"
    },
    {
      "uri": "textures/EnvironmentAmbientLight_metallicRoughness.png"
    },
    {
      "uri": "textures/material_4_baseColor.png"
    },
    {
      "uri": "textures/material_8_baseColor.png"
    },
    {
      "uri": "textures/material_9_baseColor.png"
    }
  ],
  "materials": [
    {
      "doubleSided": true,
      "name": "material",
      "pbrMetallicRoughness": {
        "baseColorTexture": {
          "index": 0
        },
        "metallicFactor": 0.0
      }
    },
    {
      "doubleSided": true,
      "extensions": {
        "KHR_materials_specular": {
          "specularColorFactor": [
            1.0,
            1.0,
            1.0
          ],
          "specularFactor": 0.0
        }
      },
      "name": "material_1",
      "pbrMetallicRoughness": {
        "baseColorTexture": {
          "index": 1
        },
        "metallicRoughnessTexture": {
          "index": 2
        }
      }
    },
    {
      "doubleSided": true,
      "extensions": {
        "KHR_materials_specular": {
          "specularColorFactor": [
            1.0,
            1.0,
            1.0
          ],
          "specularFactor": 0.20926630926696632
        }
      },
      "name": "EnvironmentAmbientLight",
      "pbrMetallicRoughness": {
        "baseColorTexture": {
          "index": 3
        },
        "metallicFactor": 0.0,
        "metallicRoughnessTexture": {
          "index": 4
        }
      }
    },
    {
      "doubleSided": true,
      "extensions": {
        "KHR_materials_specular": {
          "specularColorFactor": [
            1.0,
            1.0,
            1.0
          ],
          "specularFactor": 0.2424029894960156
        }
      },
      "name": "material_3",
      "pbrMetallicRoughness": {
        "baseColorTexture": {
          "index": 3
        },
        "metallicFactor": 0.05
      }
    },
    {
      "doubleSided": true,
      "extensions": {
        "KHR_materials_specular": {
          "specularColorFactor": [
            1.0,
            1.0,
            1.0
          ],
          "specularFactor": 0.6483636761142986
        }
      },
      "name": "material_4",
      "pbrMetallicRoughness": {
        "baseColorTexture": {
          "index": 5
        },
        "metallicFactor": 0.482664138387136,
        "roughnessFactor": 0.6084657896397875
      }
    },
    {
      "doubleSided": true,
      "name": "material_5",
      "pbrMetallicRoughness": {
        "baseColorTexture": {
          "index": 1
        },
        "metallicFactor": 0.05
      }
    },
    {
      "doubleSided": true,
      "name": "material_6",
      "pbrMetallicRoughness": {
        "baseColorTexture": {
          "index": 1
        },
        "metallicFactor": 0.6815004028464657,
        "roughnessFactor": 0.3847810491541499
      }
    },
    {
      "doubleSided": true,
      "name": "material_7",
      "pbrMetallicRoughness": {
        "baseColorTexture": {
          "index": 1
        },
        "metallicFactor": 0.05
      }
    },
    {
      "alphaMode": "BLEND",
      "doubleSided": true,
      "name": "material_8",
      "pbrMetallicRoughness": {
        "baseColorFactor": [
          1.0,
          1.0,
          1.0,
          0.0
        ],
        "baseColorTexture": {
          "index": 6
        },
        "metallicFactor": 0.05
      }
    },
    {
      "doubleSided": true,
      "extensions": {
        "KHR_materials_specular": {
          "specularColorFactor": [
            1.0,
            1.0,
            1.0
          ],
          "specularFactor": 0.6732121521406065
        }
      },
      "name": "material_9",
      "pbrMetallicRoughness": {
        "baseColorTexture": {
          "index": 7
        },
        "metallicFactor": 0.6317872677088159,
        "roughnessFactor": 0.5323772735247859
      }
    }
  ],
  "meshes": [
    {
      "name": "Object_0",
      "primitives": [
        {
          "attributes": {
            "COLOR_0": 2,
            "NORMAL": 1,
            "POSITION": 0,
            "TEXCOORD_0": 3
          },
          "indices": 4,
          "material": 0,
          "mode": 4
        }
      ]
    },
    {
      "name": "Object_1",
      "primitives": [
        {
          "attributes": {
            "COLOR_0": 7,
            "NORMAL": 6,
            "POSITION": 5,
            "TEXCOORD_0": 8
          },
          "indices": 9,
          "material": 1,
          "mode": 4
        }
      ]
    },
    {
      "name": "Object_2",
      "primitives": [
        {
          "attributes": {
            "COLOR_0": 12,
            "NORMAL": 11,
            "POSITION": 10,
            "TEXCOORD_0": 13
          },
          "indices": 14,
          "material": 2,
          "mode": 4
        }
      ]
    },
    {
      "name": "Object_3",
      "primitives": [
        {
          "attributes": {
            "COLOR_0": 17,
            "NORMAL": 16,
            "POSITION": 15,
            "TEXCOORD_0": 18
          },
          "indices": 19,
          "material": 3,
          "mode": 4
        }
      ]
    },
    {
      "name": "Object_4",
      "primitives": [
        {
          "attributes": {
            "COLOR_0": 22,
            "NORMAL": 21,
            "POSITION": 20,
            "TEXCOORD_0": 23
          },
          "indices": 24,
          "material": 4,
          "mode": 4
        }
      ]
    },
    {
      "name": "Object_5",
      "primitives": [
        {
          "attributes": {
            "COLOR_0": 27,
            "NORMAL": 26,
            "POSITION": 25,
            "TEXCOORD_0": 28
          },
          "indices": 29,
          "material": 5,
          "mode": 4
        }
      ]
    },
    {
      "name": "Object_6",
      "primitives": [
        {
          "attributes": {
            "COLOR_0": 32,
            "NORMAL": 31,
            "POSITION": 30,
            "TEXCOORD_0": 33
          },
          "indices": 34,
          "material": 6,
          "mode": 4
        }
      ]
    },
    {
      "name": "Object_7",
      "primitives": [
        {
          "attributes": {
            "COLOR_0": 37,
            "NORMAL": 36,
            "POSITION": 35,
            "TEXCOORD_0": 38
          },
          "indices": 39,
          "material": 7,
          "mode": 4
        }
      ]
    },
    {
      "name": "Object_8",
      "primitives": [
        {
          "attributes": {
            "COLOR_0": 42,
            "NORMAL": 41,
            "POSITION": 40,
            "TEXCOORD_0": 43
          },
          "indices": 44,
          "material": 8,
          "mode": 4
        }
      ]
    },
    {
      "name": "Object_9",
      "primitives": [
        {
          "attributes": {
            "COLOR_0": 47,
            "NORMAL": 46,
            "POSITION": 45,
            "TEXCOORD_0": 48
          },
          "indices": 49,
          "material": 9,
          "mode": 4
        }
      ]
    },
    {
      "name": "Object_10",
      "primitives": [
        {
          "attributes": {
            "COLOR_0": 52,
            "NORMAL": 51,
            "POSITION": 50,
            "TEXCOORD_0": 53
          },
          "indices": 54,
          "material": 9,
          "mode": 4
        }
      ]
    },
    {
      "name": "Object_11",
      "primitives": [
        {
          "attributes": {
            "COLOR_0": 57,
            "NORMAL": 56,
            "POSITION": 55,
            "TEXCOORD_0": 58
          },
          "indices": 59,
          "material": 8,
          "mode": 4
        }
      ]
    },
    {
      "name": "Object_12",
      "primitives": [
        {
          "attributes": {
            "COLOR_0": 62,
            "NORMAL": 61,
            "POSITION": 60,
            "TEXCOORD_0": 63
          },
          "indices": 64,
          "material": 7,
          "mode": 4
        }
      ]
    },
    {
      "name": "Object_13",
      "primitives": [
        {
          "attributes": {
            "COLOR_0": 67,
            "NORMAL": 66,
            "POSITION": 65,
            "TEXCOORD_0": 68
          },
          "indices": 69,
          "material": 6,
          "mode": 4
        }
      ]
    },
    {
      "name": "Object_14",
      "primitives": [
        {
          "attributes": {
            "COLOR_0": 72,
            "NORMAL": 71,
            "POSITION": 70,
            "TEXCOORD_0": 73
          },
          "indices": 74,
          "material": 5,
          "mode": 4
        }
      ]
    },
    {
      "name": "Object_15",
      "primitives": [
        {
          "attributes": {
            "COLOR_0": 77,
            "NORMAL": 76,
            "POSITION": 75,
            "TEXCOORD_0": 78
          },
          "indices": 79,
          "material": 4,
          "mode": 4
        }
      ]
    },
    {
      "name": "Object_16",
      "primitives": [
        {
          "attributes": {
            "COLOR_0": 82,
            "NORMAL": 81,
            "POSITION": 80,
            "TEXCOORD_0": 83
          },
          "indices": 84,
          "material": 3,
          "mode": 4
        }
      ]
    },
    {
      "name": "Object_17",
      "primitives": [
        {
          "attributes": {
            "COLOR_0": 87,
            "NORMAL": 86,
            "POSITION": 85,
            "TEXCOORD_0": 88
          },
          "indices": 89,
          "material": 2,
          "mode": 4
        }
      ]
    },
    {
      "name": "Object_18",
      "primitives": [
        {
          "attributes": {
            "COLOR_0": 92,
            "NORMAL": 91,
            "POSITION": 90,
            "TEXCOORD_0": 93
          },
          "indices": 94,
          "material": 1,
          "mode": 4
        }
      ]
    },
    {
      "name": "Object_19",
      "primitives": [
        {
          "attributes": {
            "COLOR_0": 97,
            "NORMAL": 96,
            "POSITION": 95,
            "TEXCOORD_0": 98
          },
          "indices": 99,
          "material": 0,
          "mode": 4
        }
      ]
    }
  ],
  "nodes": [
    {
      "children": [
        1
      ],
      "matrix": [
        1.0,
        0.0,
        0.0,
        0.0,
        0.0,
        2.220446049250313e-16,
        -1.0,
        0.0,
        0.0,
        1.0,
        2.220446049250313e-16,
        0.0,
        0.0,
        0.0,
        0.0,
        1.0
      ],
      "name": "Sketchfab_model"
    },
    {
      "children": [
        2,
        23
      ],
      "name": "Collada visual scene group"
    },
    {
      "children": [
        3,
        4,
        5,
        6,
        7,
        8,
        9,
        10,
        11,
        12,
        13,
        14,
        15,
        16,
        17,
        18,
        19,
        20,
        21,
        22
      ],
      "name": "Object_2"
    },
    {
      "mesh": 0,
      "name": "Object_3"
    },
    {
      "mesh": 1,
      "name": "Object_4"
    },
    {
      "mesh": 2,
      "name": "Object_5"
    },
    {
      "mesh": 3,
      "name": "Object_6"
    },
    {
      "mesh": 4,
      "name": "Object_7"
    },
    {
      "mesh": 5,
      "name": "Object_8"
    },
    {
      "mesh": 6,
      "name": "Object_9"
    },
    {
      "mesh": 7,
      "name": "Object_10"
    },
    {
      "mesh": 8,
      "name": "Object_11"
    },
    {
      "mesh": 9,
      "name": "Object_12"
    },
    {
      "mesh": 10,
      "name": "Object_13"
    },
    {
      "mesh": 11,
      "name": "Object_14"
    },
    {
      "mesh": 12,
      "name": "Object_15"
    },
    {
      "mesh": 13,
      "name": "Object_16"
    },
    {
      "mesh": 14,
      "name": "Object_17"
    },
    {
      "mesh": 15,
      "name": "Object_18"
    },
    {
      "mesh": 16,
      "name": "Object_19"
    },
    {
      "mesh": 17,
      "name": "Object_20"
    },
    {
      "mesh": 18,
      "name": "Object_21"
    },
    {
      "mesh": 19,
      "name": "Object_22"
    },
    {
      "children": [
        24
      ],
      "name": "EnvironmentAmbientLight"
    },
    {
      "name": "EnvironmentAmbientLight"
    }
  ],
  "samplers": [
    {
      "magFilter": 9729,
      "minFilter": 9987,
      "wrapS": 10497,
      "wrapT": 10497
    }
  ],
  "scene": 0,
  "scenes": [
    {
      "name": "Sketchfab_Scene",
      "nodes": [
        0
      ]
    }
  ],
  "textures": [
    {
      "sampler": 0,
      "source": 0
    },
    {
      "sampler": 0,
      "source": 1
    },
    {
      "sampler": 0,
      "source": 2
    },
    {
      "sampler": 0,
      "source": 3
    },
    {
      "sampler": 0,
      "source": 4
    },
    {
      "sampler": 0,
      "source": 5
    },
    {
      "sampler": 0,
      "source": 6
    },
    {
      "sampler": 0,
      "source": 7
    }
  ]
}
